<svg width="289" height="94" viewBox="0 0 289 94" fill="none" xmlns="http://www.w3.org/2000/svg">
<g filter="url(#filter0_d_38_727)">
<rect x="11" width="277.538" height="82" rx="12.6154" fill="white"/>
<rect x="11.5" y="0.5" width="276.538" height="81" rx="12.1154" stroke="#AAAAAA"/>
</g>
<path d="M37.0275 45.5433H29.9965L28.7013 49.1282H26.481L32.3093 33.1003H34.7378L40.543 49.1282H38.3226L37.0275 45.5433ZM36.4261 43.8318L33.512 35.6907L30.5978 43.8318H36.4261ZM42.2967 42.7448C42.2967 41.4496 42.5588 40.3163 43.0831 39.3449C43.6073 38.3581 44.3243 37.5949 45.234 37.0553C46.1591 36.5156 47.1922 36.2458 48.3332 36.2458C49.32 36.2458 50.2374 36.477 51.0854 36.9396C51.9335 37.3868 52.5811 37.9804 53.0282 38.7205V32.0133H55.156V49.1282H53.0282V46.746C52.6119 47.5015 51.9951 48.126 51.178 48.6194C50.3608 49.0973 49.4048 49.3363 48.3101 49.3363C47.1845 49.3363 46.1591 49.0588 45.234 48.5037C44.3243 47.9486 43.6073 47.17 43.0831 46.1678C42.5588 45.1655 42.2967 44.0245 42.2967 42.7448ZM53.0282 42.7679C53.0282 41.812 52.8355 40.9793 52.45 40.2701C52.0645 39.5608 51.5403 39.0211 50.8773 38.6511C50.2297 38.2656 49.5127 38.0729 48.7264 38.0729C47.94 38.0729 47.223 38.2579 46.5754 38.628C45.9278 38.998 45.4113 39.5377 45.0258 40.2469C44.6404 40.9562 44.4476 41.7888 44.4476 42.7448C44.4476 43.7162 44.6404 44.5642 45.0258 45.2889C45.4113 45.9982 45.9278 46.5455 46.5754 46.931C47.223 47.301 47.94 47.4861 48.7264 47.4861C49.5127 47.4861 50.2297 47.301 50.8773 46.931C51.5403 46.5455 52.0645 45.9982 52.45 45.2889C52.8355 44.5642 53.0282 43.7239 53.0282 42.7679ZM57.9263 42.7448C57.9263 41.4496 58.1884 40.3163 58.7127 39.3449C59.2369 38.3581 59.9539 37.5949 60.8636 37.0553C61.7887 36.5156 62.8218 36.2458 63.9628 36.2458C64.9496 36.2458 65.867 36.477 66.715 36.9396C67.5631 37.3868 68.2107 37.9804 68.6578 38.7205V32.0133H70.7856V49.1282H68.6578V46.746C68.2415 47.5015 67.6248 48.126 66.8076 48.6194C65.9904 49.0973 65.0344 49.3363 63.9397 49.3363C62.8141 49.3363 61.7887 49.0588 60.8636 48.5037C59.9539 47.9486 59.2369 47.17 58.7127 46.1678C58.1884 45.1655 57.9263 44.0245 57.9263 42.7448ZM68.6578 42.7679C68.6578 41.812 68.4651 40.9793 68.0796 40.2701C67.6941 39.5608 67.1699 39.0211 66.5069 38.6511C65.8593 38.2656 65.1423 38.0729 64.356 38.0729C63.5696 38.0729 62.8526 38.2579 62.205 38.628C61.5575 38.998 61.0409 39.5377 60.6555 40.2469C60.27 40.9562 60.0773 41.7888 60.0773 42.7448C60.0773 43.7162 60.27 44.5642 60.6555 45.2889C61.0409 45.9982 61.5575 46.5455 62.205 46.931C62.8526 47.301 63.5696 47.4861 64.356 47.4861C65.1423 47.4861 65.8593 47.301 66.5069 46.931C67.1699 46.5455 67.6941 45.9982 68.0796 45.2889C68.4651 44.5642 68.6578 43.7239 68.6578 42.7679ZM83.0755 38.1885V45.6589C83.0755 46.2757 83.2066 46.7151 83.4687 46.9773C83.7308 47.224 84.1857 47.3473 84.8333 47.3473H86.3829V49.1282H84.4864C83.3145 49.1282 82.4357 48.8583 81.8497 48.3187C81.2638 47.779 80.9709 46.8924 80.9709 45.6589V38.1885H79.3288V36.4539H80.9709V33.2622H83.0755V36.4539H86.3829V38.1885H83.0755ZM94.4606 49.3363C93.2733 49.3363 92.194 49.0665 91.2226 48.5268C90.2667 47.9872 89.5111 47.224 88.9561 46.2371C88.4164 45.2349 88.1466 44.0785 88.1466 42.7679C88.1466 41.4727 88.4241 40.3317 88.9792 39.3449C89.5497 38.3427 90.3206 37.5795 91.292 37.0553C92.2634 36.5156 93.3504 36.2458 94.5531 36.2458C95.7558 36.2458 96.8428 36.5156 97.8142 37.0553C98.7856 37.5795 99.5488 38.335 100.104 39.3218C100.674 40.3086 100.96 41.4573 100.96 42.7679C100.96 44.0785 100.667 45.2349 100.081 46.2371C99.5102 47.224 98.7316 47.9872 97.7448 48.5268C96.758 49.0665 95.6632 49.3363 94.4606 49.3363ZM94.4606 47.4861C95.2161 47.4861 95.9254 47.3088 96.5884 46.9541C97.2514 46.5995 97.7833 46.0675 98.1842 45.3583C98.6005 44.649 98.8087 43.7856 98.8087 42.7679C98.8087 41.7503 98.6082 40.8868 98.2074 40.1776C97.8065 39.4683 97.2822 38.9441 96.6346 38.6048C95.987 38.2502 95.2855 38.0729 94.53 38.0729C93.759 38.0729 93.0498 38.2502 92.4022 38.6048C91.77 38.9441 91.2612 39.4683 90.8757 40.1776C90.4902 40.8868 90.2975 41.7503 90.2975 42.7679C90.2975 43.801 90.4825 44.6721 90.8526 45.3814C91.2381 46.0907 91.7469 46.6226 92.379 46.9773C93.0112 47.3165 93.7051 47.4861 94.4606 47.4861ZM109.107 42.7679C109.107 41.4573 109.369 40.3163 109.893 39.3449C110.417 38.3581 111.142 37.5949 112.067 37.0553C113.007 36.5156 114.079 36.2458 115.282 36.2458C116.839 36.2458 118.119 36.6235 119.121 37.379C120.139 38.1346 120.809 39.183 121.133 40.5245H118.867C118.651 39.7535 118.227 39.1445 117.595 38.6974C116.978 38.2502 116.207 38.0266 115.282 38.0266C114.079 38.0266 113.108 38.4429 112.368 39.2756C111.627 40.0928 111.257 41.2569 111.257 42.7679C111.257 44.2944 111.627 45.4739 112.368 46.3065C113.108 47.1391 114.079 47.5555 115.282 47.5555C116.207 47.5555 116.978 47.3396 117.595 46.9079C118.211 46.4761 118.635 45.8594 118.867 45.0576H121.133C120.794 46.3528 120.116 47.3936 119.098 48.1799C118.08 48.9509 116.808 49.3363 115.282 49.3363C114.079 49.3363 113.007 49.0665 112.067 48.5268C111.142 47.9872 110.417 47.224 109.893 46.2371C109.369 45.2503 109.107 44.0939 109.107 42.7679ZM129.469 49.3363C128.282 49.3363 127.203 49.0665 126.231 48.5268C125.275 47.9872 124.52 47.224 123.965 46.2371C123.425 45.2349 123.155 44.0785 123.155 42.7679C123.155 41.4727 123.433 40.3317 123.988 39.3449C124.558 38.3427 125.329 37.5795 126.301 37.0553C127.272 36.5156 128.359 36.2458 129.562 36.2458C130.764 36.2458 131.851 36.5156 132.823 37.0553C133.794 37.5795 134.557 38.335 135.112 39.3218C135.683 40.3086 135.968 41.4573 135.968 42.7679C135.968 44.0785 135.675 45.2349 135.089 46.2371C134.519 47.224 133.74 47.9872 132.753 48.5268C131.766 49.0665 130.672 49.3363 129.469 49.3363ZM129.469 47.4861C130.225 47.4861 130.934 47.3088 131.597 46.9541C132.26 46.5995 132.792 46.0675 133.193 45.3583C133.609 44.649 133.817 43.7856 133.817 42.7679C133.817 41.7503 133.617 40.8868 133.216 40.1776C132.815 39.4683 132.291 38.9441 131.643 38.6048C130.996 38.2502 130.294 38.0729 129.538 38.0729C128.768 38.0729 128.058 38.2502 127.411 38.6048C126.779 38.9441 126.27 39.4683 125.884 40.1776C125.499 40.8868 125.306 41.7503 125.306 42.7679C125.306 43.801 125.491 44.6721 125.861 45.3814C126.247 46.0907 126.755 46.6226 127.388 46.9773C128.02 47.3165 128.714 47.4861 129.469 47.4861ZM140.84 32.0133V49.1282H138.735V32.0133H140.84ZM146.532 32.0133V49.1282H144.427V32.0133H146.532ZM161.683 42.3054C161.683 42.7062 161.66 43.1303 161.614 43.5774H151.483C151.56 44.8263 151.984 45.8054 152.755 46.5147C153.542 47.2085 154.49 47.5555 155.6 47.5555C156.51 47.5555 157.265 47.3473 157.867 46.931C158.483 46.4993 158.915 45.9288 159.162 45.2195H161.428C161.089 46.4376 160.411 47.4321 159.393 48.203C158.376 48.9586 157.111 49.3363 155.6 49.3363C154.398 49.3363 153.318 49.0665 152.362 48.5268C151.422 47.9872 150.682 47.224 150.142 46.2371C149.602 45.2349 149.332 44.0785 149.332 42.7679C149.332 41.4573 149.595 40.3086 150.119 39.3218C150.643 38.335 151.375 37.5795 152.316 37.0553C153.272 36.5156 154.367 36.2458 155.6 36.2458C156.803 36.2458 157.867 36.5079 158.792 37.0321C159.717 37.5564 160.426 38.281 160.92 39.2062C161.428 40.1159 161.683 41.1489 161.683 42.3054ZM159.509 41.8659C159.509 41.0641 159.332 40.378 158.977 39.8075C158.622 39.2216 158.137 38.7822 157.52 38.4892C156.918 38.1808 156.248 38.0266 155.508 38.0266C154.444 38.0266 153.534 38.3658 152.779 39.0443C152.038 39.7227 151.614 40.6633 151.506 41.8659H159.509ZM163.675 42.7679C163.675 41.4573 163.937 40.3163 164.461 39.3449C164.985 38.3581 165.71 37.5949 166.635 37.0553C167.576 36.5156 168.647 36.2458 169.85 36.2458C171.407 36.2458 172.687 36.6235 173.689 37.379C174.707 38.1346 175.377 39.183 175.701 40.5245H173.435C173.219 39.7535 172.795 39.1445 172.163 38.6974C171.546 38.2502 170.775 38.0266 169.85 38.0266C168.647 38.0266 167.676 38.4429 166.936 39.2756C166.196 40.0928 165.826 41.2569 165.826 42.7679C165.826 44.2944 166.196 45.4739 166.936 46.3065C167.676 47.1391 168.647 47.5555 169.85 47.5555C170.775 47.5555 171.546 47.3396 172.163 46.9079C172.779 46.4761 173.203 45.8594 173.435 45.0576H175.701C175.362 46.3528 174.684 47.3936 173.666 48.1799C172.648 48.9509 171.376 49.3363 169.85 49.3363C168.647 49.3363 167.576 49.0665 166.635 48.5268C165.71 47.9872 164.985 47.224 164.461 46.2371C163.937 45.2503 163.675 44.0939 163.675 42.7679ZM181.077 38.1885V45.6589C181.077 46.2757 181.208 46.7151 181.47 46.9773C181.732 47.224 182.187 47.3473 182.835 47.3473H184.384V49.1282H182.488C181.316 49.1282 180.437 48.8583 179.851 48.3187C179.265 47.779 178.972 46.8924 178.972 45.6589V38.1885H177.33V36.4539H178.972V33.2622H181.077V36.4539H184.384V38.1885H181.077ZM188.021 34.3955C187.62 34.3955 187.281 34.2567 187.004 33.9792C186.726 33.7017 186.587 33.3624 186.587 32.9616C186.587 32.5607 186.726 32.2215 187.004 31.9439C187.281 31.6664 187.62 31.5276 188.021 31.5276C188.407 31.5276 188.73 31.6664 188.993 31.9439C189.27 32.2215 189.409 32.5607 189.409 32.9616C189.409 33.3624 189.27 33.7017 188.993 33.9792C188.73 34.2567 188.407 34.3955 188.021 34.3955ZM189.039 36.4539V49.1282H186.934V36.4539H189.039ZM198.154 49.3363C196.966 49.3363 195.887 49.0665 194.916 48.5268C193.96 47.9872 193.204 47.224 192.649 46.2371C192.109 45.2349 191.84 44.0785 191.84 42.7679C191.84 41.4727 192.117 40.3317 192.672 39.3449C193.243 38.3427 194.014 37.5795 194.985 37.0553C195.956 36.5156 197.043 36.2458 198.246 36.2458C199.449 36.2458 200.536 36.5156 201.507 37.0553C202.479 37.5795 203.242 38.335 203.797 39.3218C204.367 40.3086 204.653 41.4573 204.653 42.7679C204.653 44.0785 204.36 45.2349 203.774 46.2371C203.203 47.224 202.425 47.9872 201.438 48.5268C200.451 49.0665 199.356 49.3363 198.154 49.3363ZM198.154 47.4861C198.909 47.4861 199.618 47.3088 200.281 46.9541C200.944 46.5995 201.476 46.0675 201.877 45.3583C202.293 44.649 202.502 43.7856 202.502 42.7679C202.502 41.7503 202.301 40.8868 201.9 40.1776C201.499 39.4683 200.975 38.9441 200.328 38.6048C199.68 38.2502 198.978 38.0729 198.223 38.0729C197.452 38.0729 196.743 38.2502 196.095 38.6048C195.463 38.9441 194.954 39.4683 194.569 40.1776C194.183 40.8868 193.99 41.7503 193.99 42.7679C193.99 43.801 194.175 44.6721 194.546 45.3814C194.931 46.0907 195.44 46.6226 196.072 46.9773C196.704 47.3165 197.398 47.4861 198.154 47.4861ZM213.595 36.2226C215.137 36.2226 216.386 36.6929 217.342 37.6335C218.298 38.5586 218.776 39.9 218.776 41.6578V49.1282H216.694V41.9584C216.694 40.6941 216.378 39.7304 215.746 39.0674C215.114 38.389 214.25 38.0498 213.156 38.0498C212.045 38.0498 211.159 38.3967 210.496 39.0905C209.848 39.7844 209.524 40.7943 209.524 42.1203V49.1282H207.42V36.4539H209.524V38.2579C209.941 37.6103 210.504 37.1092 211.213 36.7546C211.938 36.4 212.732 36.2226 213.595 36.2226Z" fill="black"/>
<g clip-path="url(#clip0_38_727)">
<path d="M267.951 43.0152H255.861V55.1049H251.831V43.0152H239.741V38.9853H251.831V26.8955H255.861V38.9853H267.951V43.0152Z" fill="black"/>
</g>
<defs>
<filter id="filter0_d_38_727" x="0" y="0" width="288.539" height="94" filterUnits="userSpaceOnUse" color-interpolation-filters="sRGB">
<feFlood flood-opacity="0" result="BackgroundImageFix"/>
<feColorMatrix in="SourceAlpha" type="matrix" values="0 0 0 0 0 0 0 0 0 0 0 0 0 0 0 0 0 0 127 0" result="hardAlpha"/>
<feOffset dx="-7" dy="8"/>
<feGaussianBlur stdDeviation="2"/>
<feComposite in2="hardAlpha" operator="out"/>
<feColorMatrix type="matrix" values="0 0 0 0 0.704167 0 0 0 0 0.704167 0 0 0 0 0.704167 0 0 0 0.25 0"/>
<feBlend mode="normal" in2="BackgroundImageFix" result="effect1_dropShadow_38_727"/>
<feBlend mode="normal" in="SourceGraphic" in2="effect1_dropShadow_38_727" result="shape"/>
</filter>
<clipPath id="clip0_38_727">
<rect width="48.359" height="48.359" fill="white" transform="translate(229.667 16.8206)"/>
</clipPath>
</defs>
</svg>
